<?xml version="1.0" encoding="utf-8"?>
<!-- Generator: Adobe Illustrator 18.0.0, SVG Export Plug-In . SVG Version: 6.00 Build 0)  -->
<!DOCTYPE svg PUBLIC "-//W3C//DTD SVG 1.1//EN" "http://www.w3.org/Graphics/SVG/1.1/DTD/svg11.dtd">
<svg version="1.1" id="Layer_1" xmlns="http://www.w3.org/2000/svg" xmlns:xlink="http://www.w3.org/1999/xlink" x="0px" y="0px"
	 viewBox="0 0 100 100" enable-background="new 0 0 100 100" xml:space="preserve">
<path fill="#2E67B2" d="M64.3,13.9H35.7c-18.3,0-33.2,14.4-33.2,32c0,17.7,14.9,32,33.2,32c3.4,0,6.1-2.7,6.1-6.1
	c0-3.4-2.7-6.1-6.1-6.1c-11.6,0-21-8.9-21-19.9c0-10.9,9.4-19.9,21-19.9h28.6c11.6,0,21,8.9,21,19.9c0,10.9-9.5,19.9-21.1,19.9
	l-0.1,0c-3.2,0.1-6.7,1.1-9.2,2.9c-3.8,2.6-5.9,6.5-5.9,11.3c0,3.4,2.7,6.1,6.1,6.1c3.4,0,6.1-2.7,6.1-6.1c0-0.8,0.2-1.1,0.9-1.5
	c0.7-0.3,1.6-0.5,2.2-0.5c18.3,0,33.1-14.4,33.1-32C97.5,28.3,82.6,13.9,64.3,13.9z"/>
</svg>
