<?xml version="1.0" encoding="utf-8"?>
<!-- Generator: Adobe Illustrator 18.1.1, SVG Export Plug-In . SVG Version: 6.00 Build 0)  -->
<svg version="1.1" xmlns="http://www.w3.org/2000/svg" xmlns:xlink="http://www.w3.org/1999/xlink" x="0px" y="0px"
	 viewBox="0 0 150 35" enable-background="new 0 0 150 35" xml:space="preserve">
<g id="Quasier_Q__x23_52c2d2">
	<g>
		<g>
			<path fill="#FFFFFF" d="M61,14.7c0-1.1,0.4-2,1.2-2.7c0.8-0.8,1.7-1.1,2.8-1.1V20c0,2.6-0.9,4.8-2.8,6.6
				c-1.9,1.8-4.1,2.7-6.7,2.7c-2.6,0-4.8-0.9-6.7-2.7c-1.9-1.8-2.8-4-2.8-6.6v-9.3c1.1,0,2,0.4,2.8,1.1c0.8,0.8,1.2,1.7,1.2,2.7V20
				c0,1.5,0.5,2.8,1.6,4c1.1,1.1,2.4,1.7,3.9,1.7c1.5,0,2.8-0.6,3.9-1.7c1.1-1.1,1.6-2.4,1.6-3.9V14.7z"/>
			<path fill="#FFFFFF" d="M87.1,20.1v9.3h-9.5c-2.6,0-4.8-0.9-6.7-2.7c-1.9-1.8-2.8-4-2.8-6.6c0-2.6,0.9-4.8,2.8-6.6
				c1.9-1.8,4.1-2.7,6.7-2.7c2.6,0,4.8,0.9,6.7,2.7C86.2,15.3,87.1,17.5,87.1,20.1z M83.1,25.6v-5.6c0-1.5-0.5-2.8-1.6-4
				c-1.1-1.1-2.4-1.7-3.9-1.7c-1.5,0-2.9,0.6-3.9,1.7c-1.1,1.1-1.6,2.4-1.6,4s0.5,2.8,1.6,3.9s2.4,1.6,3.9,1.6H83.1z"/>
			<path fill="#FFFFFF" d="M106,23.5c0-0.2-0.1-0.5-0.1-0.7c-0.2-0.7-0.5-1.4-1-2c-0.5-0.6-1.1-1-1.8-1.3l-8.1-3
				c-0.1,0-0.2-0.1-0.2-0.2c-0.1-0.1-0.1-0.1-0.2-0.2L94.5,16c0,0,0-0.1,0-0.1c0-0.1,0-0.1,0-0.2c0,0,0,0,0-0.1v-0.1
				c0-0.1,0-0.1,0-0.2c0-0.1,0.1-0.3,0.1-0.4c0.1-0.1,0.1-0.2,0.2-0.3c0.1-0.1,0.3-0.2,0.4-0.2c0.2-0.1,0.3-0.1,0.5-0.1l7,0
				c0.9,0,1.7-0.3,2.4-1c0.7-0.6,1-1.4,1-2.4v-0.4h-0.5l0,0H95v0.1c-0.4,0-0.8,0.1-1.1,0.2c-0.5,0.1-0.9,0.3-1.4,0.6
				c-0.6,0.4-1.1,0.9-1.5,1.5c-0.4,0.6-0.6,1.3-0.7,2c0,0.1-0.1,0.3-0.1,0.4v0.3c0,0.5,0.1,1.1,0.3,1.6c0.2,0.5,0.4,1,0.8,1.5
				c0.3,0.3,0.5,0.6,0.8,0.8c0.3,0.2,0.7,0.4,1,0.5l7.7,2.9c0.2,0.1,0.4,0.2,0.5,0.3c0.2,0.1,0.3,0.3,0.3,0.4c0,0.1,0.1,0.2,0.1,0.3
				c0,0.1,0,0.2,0,0.3v0.2c0,0,0,0,0,0h0l0,0.1c-0.1,0.3-0.2,0.5-0.4,0.7c-0.2,0.2-0.4,0.3-0.6,0.4h-7.1l-0.1,0l0,0
				c-0.9,0-1.6,0.4-2.3,1c-0.7,0.6-1,1.4-1,2.4v0.4h10.4c0.5,0,1-0.1,1.5-0.2c0.5-0.1,1-0.3,1.4-0.6c0.6-0.4,1.2-0.9,1.6-1.5
				c0.4-0.6,0.7-1.3,0.9-2c0-0.2,0-0.3,0-0.4v-0.3C106.1,24,106,23.7,106,23.5z"/>
			<path fill="#FFFFFF" d="M113.6,29.3c-1.1,0-2-0.4-2.8-1.1c-0.8-0.8-1.2-1.7-1.2-2.7V10.8c1.1,0,2,0.4,2.8,1.1
				c0.8,0.8,1.2,1.7,1.2,2.7V29.3z"/>
			<path fill="#FFFFFF" d="M126.4,29.3c-2.6,0-4.8-0.9-6.7-2.7c-1.9-1.8-2.8-4-2.8-6.6c0-2.6,0.9-4.8,2.8-6.6
				c1.9-1.8,4.1-2.7,6.7-2.7h5.5c0,1-0.4,1.9-1.1,2.6c-0.7,0.7-1.6,1.1-2.6,1.1h-1.8c-1.5,0-2.8,0.6-3.9,1.7
				c-1.1,1.1-1.6,2.4-1.6,3.9c0,1.5,0.5,2.8,1.6,3.9c1.1,1.1,2.4,1.6,3.9,1.6h1.8c1,0,1.9,0.4,2.6,1.1c0.7,0.7,1.1,1.6,1.1,2.6
				H126.4z M125.1,18.2h6.9c0,1-0.4,1.9-1.1,2.6c-0.7,0.7-1.6,1.1-2.6,1.1h-3.1c-0.5,0-1-0.2-1.3-0.5c-0.4-0.4-0.5-0.8-0.5-1.3
				c0-0.5,0.2-1,0.5-1.3C124.2,18.4,124.6,18.2,125.1,18.2z"/>
			<path fill="#FFFFFF" d="M138.9,25.4c0,1.1-0.4,2-1.2,2.7c-0.8,0.8-1.7,1.1-2.8,1.1V20c0-2.6,0.9-4.7,2.8-6.6
				c1.9-1.8,4.1-2.7,6.7-2.7h5.5c0,1-0.4,1.9-1.1,2.6c-0.7,0.7-1.6,1.1-2.6,1.1h-1.8c-1.5,0-2.9,0.5-3.9,1.6s-1.6,2.4-1.6,3.9V25.4z
				"/>
		</g>
		<g>
			<path fill="#52C2D2" d="M15.6,5h1.9C18.9,5,20,3.9,20,2.5S18.9,0,17.5,0h-1.9C7.2,0,0.2,6.6,0,14.8c-0.1,4.1,1.5,8,4.4,10.9
				c2.9,2.9,6.8,4.6,10.9,4.6l4.4,0l0.4,0l0-0.4c0-2.6-2.1-4.7-4.7-4.7l-0.1,0c-2.7,0-5.3-1.1-7.2-3.1c-1.9-2-3-4.6-2.9-7.3
				C5.3,9.5,9.9,5,15.6,5z"/>
			<path fill="#FFFFFF" d="M26.2,0h-2.4c-1.4,0-2.5,1.1-2.5,2.5S22.3,5,23.7,5h2.5c5.6,0,10.3,4.4,10.5,9.8c0.1,2.8-0.9,5.4-2.9,7.3
				c-1.9,2-4.5,3.1-7.3,3.1h-0.2c-2.8,0-5.1,2.3-5.1,5v4.3l0,0.4h0.4c2.6,0,4.7-2.1,4.7-4.7h0.6c0.1,0,0.2,0,0.3,0
				c8.2-0.4,14.6-7,14.6-15.2C41.8,6.9,34.6,0,26.2,0z"/>
		</g>
	</g>
</g>
<g id="Quasier_BG__x23_2b3b44">
</g>
<g id="Quasier_Standard">
</g>
</svg>
